<svg version="1.0" xmlns="http://www.w3.org/2000/svg" width="933.333" height="933.333" viewBox="0 0 700 700"><path d="M327 19.1c-10.3.9-20.8 2-22.8 2.4-.9.1-3.9.6-6.7.9-2.7.4-5.7.9-6.5 1.1-.8.2-2.8.7-4.5 1-32.1 5.6-73.8 21.2-103 38.5-2.7 1.6-6.6 3.8-8.5 4.9-3.3 1.8-23.1 15.4-26.1 18-.8.6-3.4 2.7-5.9 4.7-18.1 14.4-39.7 36-52.8 52.9-3.5 4.4-6.9 8.7-7.7 9.7-2.1 2.5-12.7 18.5-17.5 26.3-5.5 8.9-17.7 33.4-22.3 44.6-3.7 8.9-12.2 33.8-13.1 38-.3 1.3-1.1 4.9-2 7.9-1.4 5.3-4.9 22.8-6 30-5.3 35.5-4.9 71.4 1 106.5 3 17.9 11.8 50.1 16.9 62 .7 1.6 2.9 6.9 4.9 11.8 5 12 12.7 27.1 20.4 40.2 3.6 6 6.8 11.2 7.1 11.5.3.3 2 2.5 3.6 5 30.4 45.6 76.1 85.4 127 110.6 15.6 7.8 21.3 10.1 39.4 16.4 12.4 4.3 29.4 9 41.1 11.4 9.4 1.9 15.2 2.8 26.5 4.2 2.8.3 5.9.8 7 1.1 3.7.9 56.9 1.1 63 .3 3.3-.5 8.6-1.1 11.8-1.5 26.9-2.8 66.1-13.6 91.4-25.1 2.8-1.3 5.7-2.4 6.3-2.4.6 0 1.3-.7 1.6-1.5.4-.8 1-1.2 1.5-.9 1.4.8 25.8-12.5 39.9-21.9 7.5-5 21.1-14.7 22-15.7.3-.3 2.5-2.1 5-4 12.8-10 36.7-33.9 47.5-47.5 2.2-2.8 4.3-5.2 4.6-5.5.3-.3 2.3-3 4.6-6 38.8-53.2 60-110.1 65-174 1.4-17.6.8-48.1-1.3-63.5-.2-2.2-.7-5.4-.9-7-.4-3.2-2.2-14.1-3-19-.3-1.7-1.1-4.8-1.7-7-.5-2.2-1.2-4.8-1.3-5.8-4.3-22.1-18.4-58.3-32.8-84.2-8-14.4-25.2-39.8-31.2-46.1-.5-.6-2.3-2.8-4-5-17.8-22.7-51.1-51.6-80-69.3-5.5-3.4-10.7-6.6-11.5-7.1-2.2-1.4-26.7-13.5-32.4-16-26-11.5-62.2-21.1-92.6-24.4-3-.4-7.7-.9-10.5-1.2-7.2-.9-41.7-1.1-50.5-.3z"/></svg>