<svg xmlns="http://www.w3.org/2000/svg" viewBox="0 0 652.49 652.49" style="enable-background:new 0 0 652.49 652.49" xml:space="preserve">
	<path d="M544.83 107.66c64.87 64.87 94.91 151.38 90.14 236.34L308.49 17.52c84.95-4.77 171.46 25.27 236.34 90.14z" style="fill:#e30613"/>
	<path d="M308.49 17.52 634.96 344c-2.24 39.92-12.22 79.5-29.92 116.33L192.15 47.44c36.83-17.7 76.41-27.68 116.34-29.92z" style="fill:#c72924"/>
	<path d="m192.15 47.44 412.89 412.89c-14.7 30.72-34.79 59.47-60.22 84.91l-.54.54L106.71 108.2l.54-.54c25.44-25.43 54.18-45.52 84.9-60.22z" style="fill:#a82422"/>
	<path d="m106.71 108.2 437.58 437.58c-25.73 25.58-54.79 45.74-85.83 60.42L46.29 194.03c14.68-31.04 34.84-60.1 60.42-85.83z" style="fill:#0059a6"/>
	<path d="m46.29 194.03 412.16 412.16a308.777 308.777 0 0 1-116.92 29.28L17.01 310.95c1.97-40.1 11.76-79.87 29.28-116.92z" style="fill:#0077ae"/>
	<path d="m17.01 310.95 324.53 324.53c-84.3 4.21-169.93-25.88-234.29-90.24s-94.45-150-90.24-234.29z" style="fill:#00a3ca"/>
</svg>