<svg version="1.1" id="Calque_1" xmlns="http://www.w3.org/2000/svg" x="0" y="0" viewBox="0 0 236.8 236.8" style="enable-background:new 0 0 236.8 236.8" xml:space="preserve"><style>.st2{fill:#939598}</style><circle cx="118.4" cy="118.4" r="107.6" style="fill:#fff"/><path d="M75.4 82.4c-.5 1-.6 1.8-.5 2.4-1.1-.3-2.5-.7-4.4-1.3-3-.8-5.9-1.2-8.8-1.2-4.3 0-8.1 1-11.3 3.1-.6 4.8-1 10.1-1.3 15.7-.3 5.6-.4 11.7-.4 18.3 0 6.9.2 12.7.7 17.4-.5 1-1.9 1.5-4.1 1.5H45c-1.3-4.3-2-11.7-2-22 0-9.4.4-19 1.3-28.8-1.6.4-4.2 1.6-8 3.8-3.5 2-5.9 3-7.2 3-.5 0-.9-.3-1.3-1s-.5-1.3-.5-1.8c0-.7.2-1.2.5-1.5.2-.2.7-.5 1.6-1.1.9-.6 2.1-1.4 3.7-2.4C43.5 80 52.5 76.8 60 76.8c6 0 11.1 1.9 15.4 5.6zM87 144.2c0 .3-.4.4-1.2.4-2 0-4.1-1.8-6.1-5.4-.7-1.3-1.4-2.5-2.1-3.8-.7-1.3-1.4-2.6-2-3.9-1 .5-2 .9-3 1.4-1 .5-2 .9-2.9 1.4-2.4 1.2-4.5 1.7-6.3 1.7-2.3 0-4.2-.7-5.7-2.2-1.5-1.5-2.2-3.4-2.2-5.7 0-2.7 1.4-5.7 4.1-9 2.8-3.2 5.5-4.8 8.2-4.8 3.3 0 6.2 1.4 8.7 4.3.7-1.4 1.8-2 3.5-2 1 0 1.8.3 2.4 1-1 2-1.4 4-1.4 6 0 2.5 1 5.9 3 10.3 2 4.3 3 7.7 3 10.3zm-15.6-19.7c0-.5-.5-1.2-1.4-2.2-.9-1-1.6-1.5-2.1-1.5-1.2 0-2.6.8-4.2 2.3-1.6 1.5-2.4 2.9-2.4 4.1 0 .6.5 1.2 1.4 1.8.9.6 1.7.9 2.5.9 1.3 0 2.6-.6 4.1-1.8 1.4-1.1 2.1-2.3 2.1-3.6zM97.5 136.8c-1.1 1-2.2 1.4-3.2 1.4-2.7 0-4.1-6.2-4.1-18.6 0-3.9.1-8.2.2-12.7.2-4.5.4-9.4.7-14.6.1-1.2.3-2.6.4-4.4.2-1.7.3-3.8.5-6.1V80c0-.7.1-1.6.1-2.5.2-1.2.8-1.8 1.7-1.8 1.5 0 2.4.8 2.6 2.4.1.8.2 1.9.3 3.4.1 1.5.1 3.3.1 5.5 0 1.7-.1 3.8-.2 6.3s-.3 5.4-.5 8.8c-.4 6.7-.5 11.7-.5 15 0 3.6.1 7.1.4 10.4.4 3.2.8 6.3 1.5 9.3z"/><path d="M114.2 96.1c0 1.4-.7 2.1-2.1 2.1-1.4 0-2.7-.8-3.9-2.3-1.2-1.5-1.9-3-1.9-4.4 0-2.6.8-3.9 2.4-3.9 1.7 0 3.1 1 4.1 3.1.9 1.7 1.4 3.5 1.4 5.4z" style="fill:#ed1c24"/><path d="M110.8 136.1c-1.2.7-2.4 1.1-3.6 1.1-1.3 0-2.2-.5-2.9-1.6-.2-4.4-.3-8.2-.4-11.5-.1-3.3-.1-6.1-.1-8.3 0-4.5.5-8.4 1.6-11.5h.9c1.9 0 3.2.6 4.1 1.9-.4 4.9-.6 8.8-.6 11.7 0 9.1.4 15.1 1 18.2zM145.3 120.5c0 3.9-2.2 7.6-6.7 11.4-4.5 3.7-8.7 5.5-12.7 5.5-2.6 0-4.9-1.2-6.8-3.7-1.7-2.2-2.6-4.7-2.6-7.5 0-4.4 1.2-8 3.8-10.8 2.5-2.8 5.9-4.2 10.3-4.2 4.2 0 6.4 1.8 6.4 5.3 0 .7-.2 1.5-.6 2.3-.4.8-.9 1.2-1.5 1.2-.9 0-1.9-.5-3-1.6-1-1.1-1.8-1.6-2.4-1.6-1.8 0-3.5 1-5 3.1-1.5 2-2.2 4-2.2 5.9 0 .9.4 2 1.3 3.3.9 1.2 1.8 1.8 2.8 1.8 2.8 0 5.5-1.2 8.1-3.6 1.1-1 2-2.1 2.9-3.3.9-1.2 1.7-2.5 2.3-4-1.4-13.1-2.1-25.1-2.1-36.1 0-2.9.1-4.5.2-4.8.2-.2.5-.3 1-.3.8 0 1.6.6 2.4 1.7.8 1.1 1.3 2.1 1.3 3 0 .6.1 1.3.1 2.1s.1 1.8.1 2.9c0 .6.1 1.6.2 3.2.1 1.5.3 3.6.5 6.2.2 1.9.3 3.7.5 5.6.2 1.8.4 3.7.6 5.6.4 4.4.6 8.2.6 11.3v.1zM180.9 144.2c0 .3-.4.4-1.2.4-2 0-4.1-1.8-6.1-5.4-.7-1.3-1.4-2.5-2.1-3.8-.7-1.3-1.4-2.6-2-3.9-1 .5-2 .9-3 1.4-1 .5-2 .9-2.9 1.4-2.4 1.2-4.5 1.7-6.3 1.7-2.3 0-4.2-.7-5.7-2.2-1.5-1.5-2.2-3.4-2.2-5.7 0-2.7 1.4-5.7 4.1-9 2.8-3.2 5.5-4.8 8.2-4.8 3.3 0 6.2 1.4 8.7 4.3.7-1.4 1.8-2 3.5-2 1 0 1.8.3 2.4 1-1 2-1.4 4-1.4 6 0 2.5 1 5.9 3 10.3 2 4.3 3 7.7 3 10.3zm-15.6-19.7c0-.5-.5-1.2-1.4-2.2-.9-1-1.6-1.5-2.1-1.5-1.2 0-2.6.8-4.2 2.3-1.6 1.5-2.4 2.9-2.4 4.1 0 .6.5 1.2 1.4 1.8.9.6 1.7.9 2.5.9 1.3 0 2.6-.6 4.1-1.8 1.4-1.1 2.1-2.3 2.1-3.6zM209.7 120.5c0 3.9-2.2 7.6-6.7 11.4-4.5 3.7-8.7 5.5-12.7 5.5-2.6 0-4.9-1.2-6.8-3.7-1.7-2.2-2.6-4.7-2.6-7.5 0-4.4 1.2-8 3.8-10.8 2.5-2.8 5.9-4.2 10.3-4.2 4.2 0 6.4 1.8 6.4 5.3 0 .7-.2 1.5-.6 2.3-.4.8-.9 1.2-1.5 1.2-.9 0-1.9-.5-3-1.6-1-1.1-1.8-1.6-2.4-1.6-1.8 0-3.5 1-5 3.1-1.5 2-2.2 4-2.2 5.9 0 .9.4 2 1.3 3.3.9 1.2 1.8 1.8 2.8 1.8 2.8 0 5.5-1.2 8.1-3.6 1.1-1 2-2.1 2.9-3.3.9-1.2 1.7-2.5 2.3-4-1.4-13-2.1-25-2.1-36 0-2.9.1-4.5.2-4.8.2-.2.5-.3 1-.3.8 0 1.6.6 2.4 1.7.8 1.1 1.3 2.1 1.3 3 0 .6.1 1.3.1 2.1s.1 1.8.1 2.9c0 .6.1 1.6.2 3.2.1 1.5.3 3.6.5 6.2.2 1.9.3 3.7.5 5.6.2 1.8.4 3.7.6 5.6.4 4.4.6 8.2.6 11.3z"/><path class="st2" d="M50.6 157.2c-.1 1.2-.6 2.2-1.3 2.8-.7.7-1.7 1-3 1-.9 0-1.6-.2-2.3-.7-.7-.4-1.2-1-1.5-1.8-.4-.8-.5-1.7-.6-2.7v-1.5c0-1 .2-2 .5-2.8.4-.8.9-1.4 1.6-1.9.7-.4 1.5-.7 2.4-.7 1.3 0 2.2.3 3 1s1.1 1.6 1.3 2.8h-1c-.2-2-1.3-3-3.2-3-1.1 0-1.9.4-2.5 1.2-.6.8-.9 1.9-.9 3.3v1.4c0 1.4.3 2.4.9 3.2.6.8 1.4 1.2 2.5 1.2 1 0 1.8-.2 2.3-.7.5-.5.8-1.2 1-2.2h.8zM64.6 155.6c0 1.1-.2 2-.6 2.8-.4.8-.9 1.4-1.6 1.9-.7.4-1.5.7-2.4.7-1.4 0-2.5-.5-3.3-1.5-.8-1-1.3-2.3-1.3-4v-1.2c0-1.1.2-2 .6-2.8.4-.8.9-1.5 1.6-1.9.7-.4 1.5-.7 2.4-.7.9 0 1.7.2 2.4.7.7.4 1.2 1 1.6 1.8.4.8.6 1.7.6 2.8v1.4zm-1-1.2c0-1.4-.3-2.5-1-3.3-.6-.8-1.5-1.2-2.6-1.2s-2 .4-2.6 1.2c-.6.8-1 1.9-1 3.4v1.2c0 1.4.3 2.5 1 3.3.6.8 1.5 1.2 2.6 1.2s2-.4 2.6-1.2c.6-.8.9-1.9.9-3.3v-1.3zM71.3 149.2l4.3 10.3 4.3-10.3h1.3v11.7h-1v-5.1l.1-5.2-4.3 10.3h-.8l-4.3-10.3.1 5.2v5.1h-1v-11.7h1.3zM88.5 149.2l4.3 10.3 4.3-10.3h1.3v11.7h-1v-5.1l.1-5.2-4.4 10.3h-.8L88 150.6l.1 5.2v5.1h-1v-11.7h1.4zM112.4 149.2v8c0 .8-.2 1.5-.5 2.1-.3.6-.8 1-1.5 1.3-.6.3-1.3.5-2.2.5-1.2 0-2.2-.3-3-1-.7-.7-1.1-1.6-1.2-2.8v-8.1h1v7.9c0 1 .3 1.8.8 2.3.6.5 1.3.8 2.3.8 1 0 1.7-.3 2.3-.8.6-.5.8-1.3.8-2.3v-7.9h1.2zM126.8 160.9h-1l-6.7-10v10h-1v-11.7h1l6.7 10v-10h1v11.7zM133.9 160.9h-1v-11.7h1v11.7zM148.3 157.2c-.1 1.2-.6 2.2-1.3 2.8-.7.7-1.7 1-3 1-.9 0-1.6-.2-2.3-.7-.7-.4-1.2-1-1.5-1.8-.4-.8-.5-1.7-.6-2.7v-1.5c0-1 .2-2 .5-2.8.4-.8.9-1.4 1.6-1.9.7-.4 1.5-.7 2.4-.7 1.3 0 2.2.3 3 1 .7.7 1.1 1.6 1.3 2.8h-1c-.2-2-1.3-3-3.2-3-1.1 0-1.9.4-2.5 1.2-.6.8-.9 1.9-.9 3.3v1.4c0 1.4.3 2.4.9 3.2.6.8 1.4 1.2 2.5 1.2 1 0 1.8-.2 2.3-.7.5-.5.8-1.2 1-2.2h.8zM160 157.6h-5.3l-1.2 3.3h-1l4.4-11.7h.9l4.4 11.7h-1l-1.2-3.3zm-5-.9h4.7l-2.3-6.4-2.4 6.4zM173.8 150h-4v10.9h-1V150h-4v-.8h9v.8zM179.8 160.9h-1v-11.7h1v11.7zM194.6 155.6c0 1.1-.2 2-.6 2.8-.4.8-.9 1.4-1.6 1.9-.7.4-1.5.7-2.4.7-1.4 0-2.5-.5-3.3-1.5-.8-1-1.3-2.3-1.3-4v-1.2c0-1.1.2-2 .6-2.8.4-.8.9-1.5 1.6-1.9.7-.4 1.5-.7 2.4-.7.9 0 1.7.2 2.4.7.7.4 1.2 1 1.6 1.8s.6 1.7.6 2.8v1.4zm-1-1.2c0-1.4-.3-2.5-1-3.3-.6-.8-1.5-1.2-2.6-1.2s-2 .4-2.6 1.2c-.6.8-1 1.9-1 3.4v1.2c0 1.4.3 2.5 1 3.3.6.8 1.5 1.2 2.6 1.2s2-.4 2.6-1.2c.6-.8.9-1.9.9-3.3v-1.3zM208.7 160.9h-1l-6.7-10v10h-1v-11.7h1l6.7 10v-10h1v11.7z"/></svg>